<svg width="149" height="149" viewBox="0 0 149 149" fill="none" xmlns="http://www.w3.org/2000/svg">
<path d="M74.5 37.25L67.8416 43.7362L93.8234 69.8438H37.25V79.1562H93.8234L67.8416 105.106L74.5 111.75L111.75 74.5L74.5 37.25Z" fill="black"/>
<path d="M74.5 139.688C61.6072 139.688 49.0038 135.864 38.2838 128.701C27.5638 121.539 19.2085 111.358 14.2746 99.4462C9.34074 87.5347 8.04981 74.4277 10.5651 61.7826C13.0804 49.1374 19.2889 37.5221 28.4055 28.4055C37.5221 19.2889 49.1374 13.0804 61.7826 10.5651C74.4277 8.04981 87.5347 9.34074 99.4462 14.2746C111.358 19.2085 121.539 27.5638 128.701 38.2838C135.864 49.0038 139.688 61.6072 139.688 74.5C139.668 91.7828 132.794 108.352 120.573 120.573C108.352 132.794 91.7828 139.668 74.5 139.688ZM74.5 18.625C63.449 18.625 52.6461 21.902 43.4575 28.0417C34.2689 34.1813 27.1073 42.9078 22.8783 53.1176C18.6492 63.3274 17.5427 74.562 19.6987 85.4007C21.8546 96.2394 27.1762 106.195 34.9904 114.01C42.8047 121.824 52.7607 127.145 63.5994 129.301C74.438 131.457 85.6726 130.351 95.8825 126.122C106.092 121.893 114.819 114.731 120.958 105.543C127.098 96.3539 130.375 85.5511 130.375 74.5C130.358 59.6864 124.465 45.4843 113.991 35.0095C103.516 24.5346 89.3137 18.6423 74.5 18.625Z" fill="black"/>
</svg>
