<svg width="44" height="66" viewBox="0 0 44 66" fill="none" xmlns="http://www.w3.org/2000/svg" xmlns:xlink="http://www.w3.org/1999/xlink">
<path d="M42.516,1.374C42.516,0.889 42.311,0.424 41.945,0.08C41.58,-0.263 41.083,-0.455 40.566,-0.455L30.815,-0.455C25.905,-0.685 21.098,0.918 17.443,4.004C13.789,7.089 11.585,11.406 11.313,16.011L11.313,25.891L1.562,25.891C1.045,25.891 0.549,26.084 0.183,26.427C-0.183,26.77 -0.388,27.235 -0.388,27.721L-0.388,37.235C-0.388,37.72 -0.183,38.185 0.183,38.528C0.549,38.872 1.045,39.064 1.562,39.064L11.313,39.064L11.313,63.581C11.313,64.066 11.519,64.532 11.884,64.875C12.25,65.218 12.746,65.411 13.263,65.411L24.965,65.411C25.482,65.411 25.978,65.218 26.344,64.875C26.709,64.532 26.915,64.066 26.915,63.581L26.915,39.064L37.134,39.064C37.568,39.07 37.991,38.94 38.337,38.695C38.683,38.45 38.932,38.103 39.045,37.71L41.853,28.196C41.931,27.926 41.941,27.643 41.884,27.368C41.826,27.093 41.702,26.835 41.522,26.612C41.341,26.389 41.108,26.208 40.841,26.083C40.574,25.958 40.28,25.893 39.981,25.891L26.915,25.891L26.915,16.011C27.012,15.105 27.465,14.266 28.186,13.657C28.908,13.048 29.845,12.713 30.815,12.718L40.566,12.718C41.083,12.718 41.58,12.525 41.945,12.182C42.311,11.839 42.516,11.373 42.516,10.888L42.516,1.374Z" fill="#FFFFFF"/>
</svg>
