<svg width="64" height="70" viewBox="0 0 64 70" fill="none" xmlns="http://www.w3.org/2000/svg" xmlns:xlink="http://www.w3.org/1999/xlink">
<path d="M17.581,0.745L44.1,0.745C54.202,0.745 62.41,9.512 62.41,20.304L62.41,48.63C62.41,53.818 60.481,58.793 57.047,62.461C53.613,66.129 48.956,68.189 44.1,68.189L17.581,68.189C7.479,68.189 -0.729,59.421 -0.729,48.63L-0.729,20.304C-0.729,15.116 1.2,10.141 4.634,6.473C8.067,2.805 12.725,0.745 17.581,0.745ZM16.95,7.489C13.935,7.489 11.045,8.768 8.913,11.045C6.782,13.322 5.584,16.409 5.584,19.629L5.584,49.305C5.584,56.015 10.667,61.445 16.95,61.445L44.731,61.445C47.745,61.445 50.636,60.166 52.767,57.889C54.899,55.612 56.096,52.524 56.096,49.305L56.096,19.629C56.096,12.918 51.014,7.489 44.731,7.489L16.95,7.489ZM47.415,12.547C48.461,12.547 49.465,12.992 50.205,13.782C50.945,14.573 51.361,15.645 51.361,16.763C51.361,17.881 50.945,18.953 50.205,19.743C49.465,20.534 48.461,20.978 47.415,20.978C46.368,20.978 45.364,20.534 44.624,19.743C43.884,18.953 43.468,17.881 43.468,16.763C43.468,15.645 43.884,14.573 44.624,13.782C45.364,12.992 46.368,12.547 47.415,12.547ZM30.84,17.606C35.027,17.606 39.042,19.382 42.002,22.544C44.962,25.706 46.625,29.995 46.625,34.467C46.625,38.939 44.962,43.227 42.002,46.39C39.042,49.552 35.027,51.328 30.84,51.328C26.654,51.328 22.639,49.552 19.679,46.39C16.718,43.227 15.055,38.939 15.055,34.467C15.055,29.995 16.718,25.706 19.679,22.544C22.639,19.382 26.654,17.606 30.84,17.606ZM30.84,24.35C28.329,24.35 25.92,25.416 24.143,27.313C22.367,29.211 21.369,31.784 21.369,34.467C21.369,37.15 22.367,39.723 24.143,41.62C25.92,43.518 28.329,44.584 30.84,44.584C33.352,44.584 35.761,43.518 37.537,41.62C39.314,39.723 40.311,37.15 40.311,34.467C40.311,31.784 39.314,29.211 37.537,27.313C35.761,25.416 33.352,24.35 30.84,24.35Z" fill="#FFFFFF"/>
</svg>
