<svg width="62" height="54" viewBox="0 0 62 54" fill="none" xmlns="http://www.w3.org/2000/svg" xmlns:xlink="http://www.w3.org/1999/xlink">
<path d="M5.505,52.297C3.808,52.297 2.355,51.664 1.145,50.398C-0.064,49.133 -0.668,47.613 -0.666,45.839L-0.666,7.095C-0.666,5.319 -0.061,3.798 1.148,2.532C2.358,1.267 3.81,0.635 5.505,0.637L54.868,0.637C56.565,0.637 58.018,1.27 59.228,2.536C60.437,3.801 61.041,5.321 61.039,7.095L61.039,45.839C61.039,47.615 60.434,49.136 59.225,50.402C58.015,51.667 56.563,52.299 54.868,52.297L5.505,52.297ZM30.187,29.696L5.505,13.552L5.505,45.839L54.868,45.839L54.868,13.552L30.187,29.696ZM30.187,23.238L54.868,7.095L5.505,7.095L30.187,23.238ZM5.505,13.552L5.505,7.095L5.505,45.839L5.505,13.552Z" fill="#FFFFFF"/>
</svg>
