<svg width="84" height="58" viewBox="0 0 84 58" fill="none" xmlns="http://www.w3.org/2000/svg" xmlns:xlink="http://www.w3.org/1999/xlink">
<path d="M33.579,40.644L55.028,28.467L33.579,16.29L33.579,40.644ZM81.354,8.862C81.891,10.77 82.263,13.327 82.511,16.574C82.8,19.821 82.924,22.622 82.924,25.057L83.172,28.467C83.172,37.356 82.511,43.891 81.354,48.072C80.32,51.725 77.923,54.079 74.204,55.094C72.262,55.622 68.707,55.987 63.252,56.23C57.88,56.515 52.962,56.636 48.415,56.636L41.844,56.88C24.528,56.88 13.741,56.23 9.485,55.094C5.765,54.079 3.368,51.725 2.335,48.072C1.798,46.164 1.426,43.607 1.178,40.36C0.889,37.113 0.765,34.312 0.765,31.877L0.517,28.467C0.517,19.578 1.178,13.043 2.335,8.862C3.368,5.209 5.765,2.855 9.485,1.84C11.427,1.312 14.981,0.947 20.437,0.704C25.809,0.42 30.727,0.298 35.273,0.298L41.844,0.054C59.161,0.054 69.947,0.704 74.204,1.84C77.923,2.855 80.32,5.209 81.354,8.862Z" fill="#FFFFFF"/>
</svg>
