<svg width="54" height="52" viewBox="0 0 54 52" fill="none" xmlns="http://www.w3.org/2000/svg" xmlns:xlink="http://www.w3.org/1999/xlink">
<path d="M38.18,32.507L35.73,32.507L34.861,31.728C38.006,28.334 39.735,24.002 39.731,19.522C39.731,15.812 38.549,12.186 36.333,9.102C34.117,6.017 30.968,3.613 27.284,2.194C23.6,0.774 19.545,0.403 15.634,1.127C11.723,1.85 8.13,3.637 5.31,6.26C2.49,8.883 0.57,12.225 -0.208,15.863C-0.986,19.501 -0.587,23.272 0.939,26.699C2.465,30.127 5.05,33.056 8.366,35.117C11.681,37.178 15.58,38.278 19.568,38.278C24.562,38.278 29.153,36.575 32.689,33.747L33.527,34.555L33.527,36.835L49.037,51.233L53.66,46.934L38.18,32.507ZM19.568,32.507C11.844,32.507 5.608,26.707 5.608,19.522C5.608,12.337 11.844,6.537 19.568,6.537C27.292,6.537 33.527,12.337 33.527,19.522C33.527,26.707 27.292,32.507 19.568,32.507Z" fill="#000000"/>
</svg>
